<svg xmlns="http://www.w3.org/2000/svg" viewBox="0 0 700 430" font-family="Segoe UI, Arial, sans-serif">
  <!-- Background -->
  <rect width="700" height="430" rx="12" fill="#0d1117"/>

  <!-- Title -->
  <text x="350" y="32" text-anchor="middle" fill="#e6edf3" font-size="16" font-weight="bold">14-Period Average Returns (2000-2026)</text>
  <text x="350" y="52" text-anchor="middle" fill="#8b949e" font-size="12">$100K starting capital | 10 max positions | 93 stocks</text>

  <!-- Horizontal bar chart -->
  <!-- Scale: max 39.1% = 510px, so 1% = 13.04px, starts at x=140 -->

  <!-- MixLLM -->
  <text x="130" y="88" text-anchor="end" fill="#e6edf3" font-size="12" font-weight="bold">MixLLM</text>
  <rect x="140" y="75" width="510" height="20" rx="4" fill="#58a6ff"/>
  <text x="658" y="89" fill="#58a6ff" font-size="12" font-weight="bold">+39.1%</text>

  <!-- Mix -->
  <text x="130" y="118" text-anchor="end" fill="#e6edf3" font-size="12" font-weight="bold">Mix</text>
  <rect x="140" y="105" width="455" height="20" rx="4" fill="#3fb950"/>
  <text x="603" y="119" fill="#3fb950" font-size="12" font-weight="bold">+34.9%</text>

  <!-- Adaptive -->
  <text x="130" y="148" text-anchor="end" fill="#e6edf3" font-size="12">Adaptive</text>
  <rect x="140" y="135" width="425" height="20" rx="4" fill="#79c0ff"/>
  <text x="573" y="149" fill="#79c0ff" font-size="12">+32.6%</text>

  <!-- Momentum -->
  <text x="130" y="178" text-anchor="end" fill="#e6edf3" font-size="12">Momentum</text>
  <rect x="140" y="165" width="364" height="20" rx="4" fill="#79c0ff"/>
  <text x="512" y="179" fill="#79c0ff" font-size="12">+27.9%</text>

  <!-- Balanced -->
  <text x="130" y="208" text-anchor="end" fill="#e6edf3" font-size="12">Balanced</text>
  <rect x="140" y="195" width="342" height="20" rx="4" fill="#79c0ff"/>
  <text x="490" y="209" fill="#79c0ff" font-size="12">+26.2%</text>

  <!-- QQQ benchmark -->
  <text x="130" y="238" text-anchor="end" fill="#f0883e" font-size="12">QQQ</text>
  <rect x="140" y="225" width="322" height="20" rx="4" fill="#f0883e" opacity="0.5"/>
  <text x="470" y="239" fill="#f0883e" font-size="12">+24.7%</text>

  <!-- Value -->
  <text x="130" y="268" text-anchor="end" fill="#e6edf3" font-size="12">Value</text>
  <rect x="140" y="255" width="265" height="20" rx="4" fill="#8b949e"/>
  <text x="413" y="269" fill="#8b949e" font-size="12">+20.3%</text>

  <!-- SPY benchmark -->
  <text x="130" y="298" text-anchor="end" fill="#f0883e" font-size="12">SPY</text>
  <rect x="140" y="285" width="228" height="20" rx="4" fill="#f0883e" opacity="0.5"/>
  <text x="376" y="299" fill="#f0883e" font-size="12">+17.5%</text>

  <!-- Defensive -->
  <text x="130" y="328" text-anchor="end" fill="#e6edf3" font-size="12">Defensive</text>
  <rect x="140" y="315" width="185" height="20" rx="4" fill="#8b949e"/>
  <text x="333" y="329" fill="#8b949e" font-size="12">+14.2%</text>

  <!-- EventDriven -->
  <text x="130" y="358" text-anchor="end" fill="#e6edf3" font-size="12">EventDriven</text>
  <rect x="140" y="345" width="68" height="20" rx="4" fill="#8b949e"/>
  <text x="216" y="359" fill="#8b949e" font-size="12">+5.2%</text>

  <!-- Commodity -->
  <text x="130" y="388" text-anchor="end" fill="#e6edf3" font-size="12">Commodity</text>
  <rect x="140" y="375" width="48" height="20" rx="4" fill="#8b949e"/>
  <text x="196" y="389" fill="#8b949e" font-size="12">+3.7%</text>

  <!-- Legend -->
  <rect x="140" y="408" width="10" height="10" rx="2" fill="#3fb950"/>
  <text x="155" y="418" fill="#8b949e" font-size="10">Flagship</text>
  <rect x="210" y="408" width="10" height="10" rx="2" fill="#58a6ff"/>
  <text x="225" y="418" fill="#8b949e" font-size="10">LLM-Enhanced</text>
  <rect x="320" y="408" width="10" height="10" rx="2" fill="#79c0ff"/>
  <text x="335" y="418" fill="#8b949e" font-size="10">Strategies</text>
  <rect x="420" y="408" width="10" height="10" rx="2" fill="#f0883e" opacity="0.5"/>
  <text x="435" y="418" fill="#8b949e" font-size="10">Benchmarks</text>
</svg>
